<svg width="59" height="90" viewBox="0 0 59 90" fill="none" xmlns="http://www.w3.org/2000/svg">
<g clip-path="url(#clip0)">
<path d="M15.0513 89.6566C23.0898 89.6566 29.61 83.0169 29.61 74.8309V60.0052H15.0513C7.0128 60.0052 0.492672 66.6449 0.492672 74.8309C0.492672 83.0169 7.0128 89.6566 15.0513 89.6566Z" fill="#0ACF83"/>
<path d="M0.492672 45.1613C0.492672 36.9753 7.0128 30.3356 15.0513 30.3356H29.61V60.0052H15.0513C7.0128 59.987 0.492672 53.3473 0.492672 45.1613Z" fill="#A259FF"/>
<path d="M0.492676 15.4917C0.492676 7.30575 7.0128 0.666016 15.0513 0.666016H29.61V30.3356H15.0513C7.0128 30.3356 0.492676 23.6777 0.492676 15.4917Z" fill="#F24E1E"/>
<path d="M29.6278 0.666016H44.1865C52.225 0.666016 58.7451 7.30575 58.7451 15.4917C58.7451 23.6777 52.225 30.3174 44.1865 30.3174H29.6278V0.666016Z" fill="#FF7262"/>
<path d="M58.7451 45.1613C58.7451 53.3473 52.225 59.987 44.1865 59.987C36.148 59.987 29.6278 53.3473 29.6278 45.1613C29.6278 36.9753 36.148 30.3356 44.1865 30.3356C52.225 30.3356 58.7451 36.9753 58.7451 45.1613Z" fill="#1ABCFE"/>
</g>
<defs>
<clipPath id="clip0">
<rect width="58.2524" height="88.9906" fill="white" transform="translate(0.492676 0.666016)"/>
</clipPath>
</defs>
</svg>
