<svg width="90" height="90" viewBox="0 0 90 90" fill="none" xmlns="http://www.w3.org/2000/svg">
<path d="M4.00336 4.44977H85.7638V85.4547H4.00336V4.44977Z" fill="url(#paint0_radial)"/>
<path d="M4.00335 4.44976H85.7638V85.4547H4.00335V4.44976ZM0.287781 89.2384H89.4973V0.666016H0.287781V89.2384ZM58.7187 32.2457C58.7187 31.9365 58.8259 31.791 59.1653 31.791H65.0066C65.3103 31.791 65.4532 31.9001 65.4532 32.2457V62.1155C65.4532 62.4247 65.3818 62.5703 65.0066 62.5703H59.2368C58.8616 62.5703 58.7545 62.3884 58.7545 62.0791V32.2457H58.7187ZM58.3079 23.6414C58.3079 21.2219 59.987 19.7848 62.0949 19.7848C64.3635 19.7848 65.8819 21.3311 65.8819 23.6414C65.8819 26.1335 64.2921 27.4979 62.0235 27.4979C59.8799 27.5161 58.3079 26.1517 58.3079 23.6414ZM41.5878 44.6884C40.5517 40.4863 38.0866 31.3362 37.1577 26.8976H37.0862C36.3003 31.318 34.3353 38.8127 32.7812 44.6884H41.5878ZM31.2628 50.8188L28.3332 62.1701C28.2618 62.4793 28.1546 62.5521 27.7794 62.5521H22.3133C21.9381 62.5521 21.8667 62.4429 21.9381 61.9882L32.4954 24.369C32.674 23.6959 32.799 23.0774 32.8705 21.2219C32.8705 20.9491 32.9777 20.8399 33.1742 20.8399H40.9804C41.2484 20.8399 41.3556 20.9127 41.427 21.2219L53.2526 62.0609C53.324 62.3702 53.2526 62.5521 52.9489 62.5521H46.786C46.4823 62.5521 46.3037 62.4793 46.2323 62.2065L43.1776 50.8188H31.2628Z" fill="#FF7F18"/>
<defs>
<radialGradient id="paint0_radial" cx="0" cy="0" r="1" gradientUnits="userSpaceOnUse" gradientTransform="translate(30.958 22.627) scale(62.1406 61.2673)">
<stop stop-color="#423325" stop-opacity="0.98"/>
<stop offset="1" stop-color="#1C0A00"/>
</radialGradient>
</defs>
</svg>
