<svg width="40" height="41" viewBox="0 0 40 41" fill="none" xmlns="http://www.w3.org/2000/svg">
<path d="M11.3564 1.29281H11.8564V1.2832H27.7612C33.7258 1.2832 38.6083 6.26789 38.6083 12.3952V29.1692C38.6083 35.2968 33.7255 40.2812 27.7706 40.2812H11.3564C5.39053 40.2812 0.5 35.3048 0.5 29.1884V12.4048C0.5 6.27805 5.39133 1.29281 11.3564 1.29281ZM2.50833 12.4135V12.4144V29.1981C2.50833 34.1842 6.43588 38.2148 11.3564 38.2148H27.7706C32.6738 38.2148 36.5999 34.1827 36.5999 29.1788V12.4048C36.5999 7.4006 32.6735 3.36885 27.7612 3.36885H11.3564C6.44367 3.36885 2.51825 7.40093 2.50833 12.4135ZM30.5927 8.4829C30.5927 7.89297 31.0467 7.44489 31.5968 7.44489C32.147 7.44489 32.601 7.89297 32.601 8.4829C32.601 9.07283 32.147 9.52092 31.5968 9.52092C31.0467 9.52092 30.5927 9.07283 30.5927 8.4829ZM9.53438 20.787C9.53438 15.1313 14.0591 10.5209 19.5635 10.5209C25.068 10.5209 29.5927 15.1313 29.5927 20.787C29.5927 26.4428 25.068 31.0532 19.5635 31.0532C14.0591 31.0532 9.53438 26.4428 9.53438 20.787ZM27.5843 20.787C27.5843 16.2534 24.0242 12.597 19.5635 12.597C15.1029 12.597 11.5427 16.2534 11.5427 20.787C11.5427 25.3206 15.1029 28.9771 19.5635 28.9771C24.0242 28.9771 27.5843 25.3206 27.5843 20.787Z" fill="#070707" stroke="#070707"/>
</svg>
