<svg width="90" height="90" viewBox="0 0 90 90" fill="none" xmlns="http://www.w3.org/2000/svg">
<path d="M3.93408 4.42188H85.5995V85.2765H3.93408V4.42188Z" fill="url(#paint0_radial)"/>
<path d="M3.93406 4.42185H85.5994V85.2764H3.93406V4.42185ZM0.221191 89.0557H89.2944V0.642578H0.221191V89.0557ZM60.2876 36.9272C57.3602 36.9272 56.3605 38.4353 56.3605 39.689C56.3605 41.0517 57.021 41.9965 60.9659 44.0678C66.7852 46.9386 68.6059 49.7004 68.6059 53.734C68.6059 59.7845 64.0719 63.0368 57.9492 63.0368C54.7183 63.0368 51.9337 62.3646 50.345 61.4198C50.0772 61.3107 50.0415 61.1109 50.0415 60.8202V55.2421C50.0415 54.8605 50.22 54.7515 50.4878 54.9332C52.8262 56.4776 55.5037 57.1681 57.9492 57.1681C60.8767 57.1681 62.1084 55.9144 62.1084 54.2246C62.1084 52.8619 61.2515 51.6627 57.503 49.6822C52.2371 47.1203 50.0415 44.5221 50.0415 40.1614C50.0415 35.2919 53.7901 31.2401 60.2876 31.2401C63.4828 31.2401 65.7141 31.7307 66.928 32.294C67.2314 32.4756 67.3028 32.7845 67.3028 33.0571V38.2354C67.3028 38.5443 67.1243 38.726 66.7495 38.617C65.1072 37.5631 62.6974 36.9272 60.2876 36.9272ZM28.3712 41.4151C29.228 41.4878 29.8885 41.4878 31.3701 41.4878C35.7077 41.4878 39.7954 39.9433 39.7954 33.9292C39.7954 29.1325 36.868 26.7159 31.9234 26.7159C30.4418 26.7159 29.0317 26.7886 28.3533 26.8249L28.3712 41.4151ZM21.7487 21.3559C21.7487 21.0833 22.2664 20.9016 22.5698 20.9016C24.9439 20.7926 28.4783 20.7199 32.1376 20.7199C42.4194 20.7199 46.4358 26.4615 46.4358 33.7839C46.4358 43.3774 39.5991 47.5019 31.2094 47.5019C29.7992 47.5019 29.3173 47.4292 28.3176 47.4292V61.9285C28.3176 62.2374 28.2105 62.3827 27.8714 62.3827H22.195C21.8915 62.3827 21.7487 62.2737 21.7487 61.9285V21.3559Z" fill="#31C5F0"/>
<defs>
<radialGradient id="paint0_radial" cx="0" cy="0" r="1" gradientUnits="userSpaceOnUse" gradientTransform="translate(30.8385 22.5617) scale(62.0565 61.1565)">
<stop stop-color="#34364E" stop-opacity="0.98"/>
<stop offset="1" stop-color="#0C0824"/>
</radialGradient>
</defs>
</svg>
